<svg width="1336" height="305" viewBox="0 0 1336 305" fill="none" xmlns="http://www.w3.org/2000/svg">
<g clip-path="url(#clip0_2035_24)">
<path d="M19.9025 227.493C-6.63416 180.844 -6.63416 123.661 19.9025 77.0117C61.4526 3.9369 154.38 -21.6219 227.443 19.9406C300.505 61.5031 326.064 154.418 284.514 227.493L152.202 94.4263L19.9025 227.493Z" fill="#FFB900"/>
<path d="M227.442 284.551C154.367 326.101 61.4522 300.554 19.8896 227.479L152.201 94.4126L284.513 227.479C270.973 251.293 251.256 271.01 227.442 284.551Z" fill="white"/>
<path d="M152.202 199.436C116.147 136.721 145.951 100.976 151.385 95.2573L152.202 94.4404L284.513 227.495C257.494 274.998 207.082 304.357 152.424 304.419C171.262 280.84 179.444 246.828 152.202 199.436Z" fill="#040C21"/>
<path d="M743.072 231.542H714.382C714.382 231.542 712.092 188.804 660.417 188.804H645.069V231.542H616.404V107.14H695.098C723.355 107.14 741.327 126.077 741.327 147.563C741.327 170.102 722.662 181.452 713.045 181.452C717.6 183.445 743.072 192.579 743.072 231.53V231.542ZM696.249 161.834C704.443 161.513 711.015 154.94 711.337 146.747C711.683 138.07 704.925 130.755 696.249 130.409H645.069V161.884H696.249V161.834ZM477.309 107.152H505.95V231.555H478.584L403.368 147.613V231.555H374.728V107.152H402.267L477.173 192.988L477.297 107.152H477.309ZM547.847 107.152H574.767V231.555H547.847V107.152ZM1335.46 231.542H1305.08C1295.8 212.531 1277.15 201.491 1245.2 201.491H1231.56L1216.86 231.542H1186.53L1246.24 107.14H1275.75L1335.46 231.542ZM1282.46 182.566L1261.43 137.006L1243.57 177.009H1253.52C1265.07 177.009 1278.22 180.041 1282.46 182.554V182.566ZM1146.88 107.152H1175.52V231.555H1148.15L1072.91 147.613V231.555H1044.29V107.152H1071.83L1146.88 192.938V107.152ZM973.534 107.152L1033.24 231.555H1002.92C993.61 212.544 974.983 201.503 943.012 201.503H929.373L914.694 231.555H884.345L944.052 107.152H973.534ZM951.342 177.009C962.865 177.009 976.072 180.041 980.255 182.554L959.227 136.993L941.391 176.996H951.342V177.009ZM898.232 107.152L840.158 231.555H810.305L752.256 107.152H783.879L825.875 198.335L867.846 107.152H898.22H898.232Z" fill="#040C21"/>
</g>
<defs>
<clipPath id="clip0_2035_24">
<rect width="1335.46" height="304.478" fill="white"/>
</clipPath>
</defs>
</svg>
